HIERARCHY
ROOT hip
{
  OFFSET 0 0 0
  CHANNELS 6 Xposition Yposition Zposition Zrotation Yrotation Xrotation
  JOINT abdomen
  {
    OFFSET 0 20.6881 -0.73152
    CHANNELS 3 Zrotation Xrotation Yrotation
    JOINT chest
    {
      OFFSET 0 11.7043 -0.48768
      CHANNELS 3 Zrotation Xrotation Yrotation
      JOINT neck
      {
        OFFSET 0 22.1894 -2.19456
        CHANNELS 3 Zrotation Xrotation Yrotation
        JOINT head
        {
          OFFSET -0.24384 7.07133 1.2192
          CHANNELS 3 Zrotation Xrotation Yrotation
          JOINT leftEye
          {
            OFFSET 4.14528 8.04674 8.04672
            CHANNELS 3 Zrotation Xrotation Yrotation
            End Site
            {
              OFFSET 1 0 0
            }
          }
          JOINT rightEye
          {
            OFFSET -3.6576 8.04674 8.04672
            CHANNELS 3 Zrotation Xrotation Yrotation
            End Site
            {
              OFFSET 1 0 0
            }
          }
        }
      }
      JOINT rCollar
      {
        OFFSET -2.68224 19.2634 -4.8768
        CHANNELS 3 Zrotation Xrotation Yrotation
        JOINT rShldr
        {
          OFFSET -8.77824 -1.95073 1.46304
          CHANNELS 3 Zrotation Xrotation Yrotation
          JOINT rForeArm
          {
            OFFSET -28.1742 -1.7115 0.48768
            CHANNELS 3 Zrotation Xrotation Yrotation
            JOINT rHand
            {
              OFFSET -22.5879 0.773209 7.07136
              CHANNELS 3 Zrotation Xrotation Yrotation
              JOINT rThumb1
              {
                OFFSET -1.2192 -0.487915 3.41376
                CHANNELS 3 Zrotation Xrotation Yrotation
                JOINT rThumb2
                {
                  OFFSET -3.37035 -0.52449 3.41376
                  CHANNELS 3 Zrotation Xrotation Yrotation
                  End Site
                  {
                    OFFSET -1.78271 -1.18214 1.43049
                  }
                }
              }
              JOINT rIndex1
              {
                OFFSET -7.75947 0.938293 5.60832
                CHANNELS 3 Zrotation Xrotation Yrotation
                JOINT rIndex2
                {
                  OFFSET -2.54057 -0.884171 1.56538
                  CHANNELS 3 Zrotation Xrotation Yrotation
                  End Site
                  {
                    OFFSET -1.62519 -0.234802 1.16502
                  }
                }
              }
              JOINT rMid1
              {
                OFFSET -8.24714 1.18213 3.41376
                CHANNELS 3 Zrotation Xrotation Yrotation
                JOINT rMid2
                {
                  OFFSET -3.10165 -0.590103 1.0647
                  CHANNELS 3 Zrotation Xrotation Yrotation
                  End Site
                  {
                    OFFSET -2.48547 -0.328903 0.83742
                  }
                }
              }
              JOINT rRing1
              {
                OFFSET -8.82822 0.546677 1.51678
                CHANNELS 3 Zrotation Xrotation Yrotation
                JOINT rRing2
                {
                  OFFSET -2.60934 -0.819778 -0.0198488
                  CHANNELS 3 Zrotation Xrotation Yrotation
                  End Site
                  {
                    OFFSET -2.33842 -0.294052 0.168128
                  }
                }
              }
              JOINT rPinky1
              {
                OFFSET -8.27202 -0.0477905 -0.4584
                CHANNELS 3 Zrotation Xrotation Yrotation
                JOINT rPinky2
                {
                  OFFSET -1.82734 -0.647385 -0.700984
                  CHANNELS 3 Zrotation Xrotation Yrotation
                  End Site
                  {
                    OFFSET -1.69225 -0.51767 -0.607171
                  }
                }
              }
            }
          }
        }
      }
      JOINT lCollar
      {
        OFFSET 2.68224 19.2634 -4.8768
        CHANNELS 3 Zrotation Xrotation Yrotation
        JOINT lShldr
        {
          OFFSET 8.77824 -1.95073 1.46304
          CHANNELS 3 Zrotation Xrotation Yrotation
          JOINT lForeArm
          {
            OFFSET 28.1742 -1.7115 0.48768
            CHANNELS 3 Zrotation Xrotation Yrotation
            JOINT lHand
            {
              OFFSET 22.5879 0.773209 7.07136
              CHANNELS 3 Zrotation Xrotation Yrotation
              JOINT lThumb1
              {
                OFFSET 1.2192 -0.487915 3.41376
                CHANNELS 3 Zrotation Xrotation Yrotation
                JOINT lThumb2
                {
                  OFFSET 3.37035 -0.52449 3.41376
                  CHANNELS 3 Zrotation Xrotation Yrotation
                  End Site
                  {
                    OFFSET 1.78271 -1.18214 1.43049
                  }
                }
              }
              JOINT lIndex1
              {
                OFFSET 7.75947 0.938293 5.60832
                CHANNELS 3 Zrotation Xrotation Yrotation
                JOINT lIndex2
                {
                  OFFSET 2.54057 -0.884171 1.56538
                  CHANNELS 3 Zrotation Xrotation Yrotation
                  End Site
                  {
                    OFFSET 1.62519 -0.234802 1.16502
                  }
                }
              }
              JOINT lMid1
              {
                OFFSET 8.24714 1.18213 3.41376
                CHANNELS 3 Zrotation Xrotation Yrotation
                JOINT lMid2
                {
                  OFFSET 3.10165 -0.590103 1.0647
                  CHANNELS 3 Zrotation Xrotation Yrotation
                  End Site
                  {
                    OFFSET 2.48547 -0.328903 0.83742
                  }
                }
              }
              JOINT lRing1
              {
                OFFSET 8.82822 0.546677 1.51678
                CHANNELS 3 Zrotation Xrotation Yrotation
                JOINT lRing2
                {
                  OFFSET 2.60934 -0.819778 -0.0198488
                  CHANNELS 3 Zrotation Xrotation Yrotation
                  End Site
                  {
                    OFFSET 2.33842 -0.294052 0.168128
                  }
                }
              }
              JOINT lPinky1
              {
                OFFSET 8.27202 -0.0477905 -0.4584
                CHANNELS 3 Zrotation Xrotation Yrotation
                JOINT lPinky2
                {
                  OFFSET 1.82734 -0.647385 -0.700984
                  CHANNELS 3 Zrotation Xrotation Yrotation
                  End Site
                  {
                    OFFSET 1.69225 -0.51767 -0.607171
                  }
                }
              }
            }
          }
        }
      }
    }
  }
  JOINT rButtock
  {
    OFFSET -8.77824 4.35084 1.2192
    CHANNELS 3 Zrotation Xrotation Yrotation
    JOINT rThigh
    {
      OFFSET 0 -1.70687 -2.19456
      CHANNELS 3 Zrotation Xrotation Yrotation
      JOINT rShin
      {
        OFFSET 0 -36.8199 0.73152
        CHANNELS 3 Zrotation Xrotation Yrotation
        JOINT rFoot
        {
          OFFSET 0.73152 -45.1104 -5.12064
          CHANNELS 3 Zrotation Xrotation Yrotation
          End Site
          {
            OFFSET -1.1221 -3.69964 12.103
          }
        }
      }
    }
  }
  JOINT lButtock
  {
    OFFSET 8.77824 4.35084 1.2192
    CHANNELS 3 Zrotation Xrotation Yrotation
    JOINT lThigh
    {
      OFFSET 0 -1.70687 -2.19456
      CHANNELS 3 Zrotation Xrotation Yrotation
      JOINT lShin
      {
        OFFSET 0 -36.8199 0.73152
        CHANNELS 3 Zrotation Xrotation Yrotation
        JOINT lFoot
        {
          OFFSET -0.73152 -45.1104 -5.12064
          CHANNELS 3 Zrotation Xrotation Yrotation
          End Site
          {
            OFFSET 1.1221 -3.69964 12.103
          }
        }
      }
    }
  }
}
MOTION
Frames:	7
Frame Time:	0.00833333
-64.7831 85.1887 13.4327 0.0 0.0 0.0 0.55935 -0.00286671 0.0159888 0.154366 -0.00442833 0.026746 1.04494e-14 7.95139e-16 -3.16813e-16 3.14639e-14 9.54166e-15 -9.3025e-16 -0.0 0.0 0.0 -0.0 0.0 0.0 5.26659e-15 -9.31803e-18 -4.96962e-17 1.11725e-13 -2.23633e-16 -1.59028e-15 1.8981e-12 -5.725e-13 -1.01778e-13 2.169e-11 5.28742e-13 -5.50236e-13 5.11681e-11 -9.69723e-14 -1.40899e-12 8.83642e-11 -1.65389e-13 -2.44982e-12 5.11759e-11 -9.74045e-14 -1.41217e-12 7.73091 5.47488 0.417314 5.11663e-11 -9.76033e-14 -1.40899e-12 2.90554 0.965183 0.102902 5.11753e-11 -9.71063e-14 -1.41455e-12 10.2786 0.731801 0.0259123 5.11634e-11 -9.42239e-14 -1.41217e-12 2.22167 -0.733487 -0.20892 5.16995e-15 -9.70628e-18 -2.48481e-16 1.07804e-13 8.69683e-17 -3.77691e-15 1.89407e-12 5.60374e-13 -4.77083e-14 2.16961e-11 -5.94838e-13 -6.01125e-13 5.11769e-11 -8.00799e-14 -1.42489e-12 8.83836e-11 -1.43125e-13 -2.44346e-12 5.11712e-11 -8.0309e-14 -1.41217e-12 -7.73091 5.47488 -0.417314 5.11764e-11 -8.0806e-14 -1.41853e-12 -2.90554 0.965183 -0.102902 5.11708e-11 -7.99114e-14 -1.41455e-12 -10.2786 0.731801 -0.0259123 5.11807e-11 -7.91163e-14 -1.41853e-12 -2.22167 -0.733487 0.20892 -2.03217e-16 0.0 -3.88251e-19 0.92301 -4.50512 -0.0770322 -0.00206841 2.60853 -0.00963071 -0.502478 1.89677 0.0959442 2.03217e-16 0.0 3.88251e-19 -0.0712302 -2.35216 0.0224554 0.00807184 -1.29119 0.0691975 0.4946 3.64342 -0.130516
-62.7154 84.1846 10.0989 -17.0902 83.5504 -6.521 1.77124 -4.79457 2.38769 -1.33922 0.103794 0.699331 -0.774353 0.860102 -0.867559 2.71934 9.40788 -1.00633 -0.0 0.0 0.0 -0.0 0.0 0.0 4.83596e-14 1.02541e-12 -1.4573e-14 25.6743 16.4254 -2.69432 -21.9695 -19.8257 15.0368 0.0522556 -5.08278 -0.704286 8.4779e-11 5.13835e-10 3.06067e-10 1.41807e-10 8.88717e-10 5.29336e-10 8.47877e-11 5.13832e-10 3.06057e-10 7.73091 5.47488 0.417314 8.47778e-11 5.13835e-10 3.06065e-10 2.90554 0.965183 0.102902 8.47851e-11 5.13832e-10 3.06055e-10 10.2786 0.731801 0.0259123 8.47753e-11 5.13838e-10 3.06065e-10 2.22167 -0.733487 -0.20892 4.8263e-14 1.02541e-12 -1.4757e-14 -22.0746 19.8517 0.956031 22.6669 -20.5375 -14.9405 -0.110292 -7.3785 1.0062 1.91338e-10 -3.5992e-10 1.18408e-10 3.29093e-10 -6.24978e-10 2.06502e-10 1.91334e-10 -3.59916e-10 1.1842e-10 -7.73091 5.47488 -0.417314 1.91337e-10 -3.5992e-10 1.1841e-10 -2.90554 0.965183 -0.102902 1.9133e-10 -3.59916e-10 1.18414e-10 -10.2786 0.731801 -0.0259123 1.91342e-10 -3.59916e-10 1.18408e-10 -2.22167 -0.733487 0.20892 -2.03217e-16 0.0 -3.88251e-19 1.15036 -8.06739 0.945705 0.000186399 5.48389 0.045279 -0.627901 -1.35223 -1.8297 2.03217e-16 0.0 3.88251e-19 0.847697 -5.38601 0.686523 0.00167719 1.61496 0.00403181 0.623883 0.0218324 2.09652
-62.7052 84.2182 10.1112 -17.9471 83.8896 -7.1284 3.49314 -9.82478 5.02219 -2.97758 0.171489 1.43138 -1.58749 1.75536 -1.79332 6.0745 19.4674 -2.18627 -0.0 0.0 0.0 -0.0 0.0 0.0 9.59377e-14 2.16697e-12 -3.0852e-14 54.9068 33.5568 -6.4406 -32.1809 -35.8571 36.8293 -0.0303713 -10.4193 -1.46274 1.38456e-10 1.14319e-09 7.27542e-10 2.28018e-10 1.97749e-09 1.25844e-09 1.38466e-10 1.14318e-09 7.27525e-10 7.73091 5.47488 0.417314 1.38456e-10 1.14319e-09 7.27538e-10 2.90554 0.965183 0.102902 1.38461e-10 1.14318e-09 7.27523e-10 10.2786 0.731801 0.0259123 1.38454e-10 1.14319e-09 7.27542e-10 2.22167 -0.733487 -0.20892 9.58399e-14 2.16697e-12 -3.10197e-14 -46.3028 40.8959 2.47471 33.0328 -37.2079 -37.1357 0.0641928 -15.1793 2.12807 3.16954e-10 -6.7886e-10 1.66315e-10 5.46334e-10 -1.17881e-09 2.90811e-10 3.16952e-10 -6.78852e-10 1.66326e-10 -7.73091 5.47488 -0.417314 3.16954e-10 -6.78859e-10 1.66311e-10 -2.90554 0.965183 -0.102902 3.16944e-10 -6.78852e-10 1.66316e-10 -10.2786 0.731801 -0.0259123 3.16959e-10 -6.78853e-10 1.66308e-10 -2.22167 -0.733487 0.20892 -2.03217e-16 0.0 -3.88251e-19 1.5262 -11.8399 2.04698 -0.00350441 8.53125 0.104075 -0.996086 -4.77579 -3.85959 2.03217e-16 0.0 3.88251e-19 1.89209 -8.5914 1.40738 0.00206349 4.68061 -0.0649234 1.06667 -3.78957 4.46347
-62.6877 84.2485 10.1183 -18.8497 84.2183 -7.7699 5.41392 -14.2775 7.33372 -4.33401 0.320057 2.04453 -2.24488 2.57794 -2.60502 9.26221 28.1864 -3.37954 -0.0 0.0 0.0 -0.0 0.0 0.0 1.34546e-13 3.07625e-12 -4.36196e-14 83.6578 48.7219 -11.7992 -30.4796 -40.4398 62.3278 -0.229633 -15.239 -2.18128 1.52001e-10 1.5417e-09 9.21018e-10 2.48694e-10 2.66648e-09 1.59291e-09 1.52011e-10 1.54169e-09 9.20995e-10 7.73091 5.47488 0.417314 1.52001e-10 1.5417e-09 9.21012e-10 2.90554 0.965183 0.102902 1.52005e-10 1.54169e-09 9.20993e-10 10.2786 0.731801 0.0259123 1.51999e-10 1.5417e-09 9.2102e-10 2.22167 -0.733487 -0.20892 1.34449e-13 3.07625e-12 -4.37742e-14 -69.8295 59.4548 5.31369 30.6858 -41.7927 -63.6331 0.498628 -22.1071 3.23138 4.71659e-10 -1.0796e-09 3.58074e-10 8.10513e-10 -1.87465e-09 6.24394e-10 4.71659e-10 -1.07959e-09 3.58084e-10 -7.73091 5.47488 -0.417314 4.71659e-10 -1.0796e-09 3.58066e-10 -2.90554 0.965183 -0.102902 4.71647e-10 -1.07959e-09 3.5807e-10 -10.2786 0.731801 -0.0259123 4.71665e-10 -1.07959e-09 3.58061e-10 -2.22167 -0.733487 0.20892 -2.03217e-16 0.0 -3.88251e-19 1.99902 -15.1744 3.06975 -0.0121262 11.2346 0.157474 -1.53745 -7.81353 -5.73275 2.03217e-16 0.0 3.88251e-19 2.90037 -11.4478 2.04633 0.00880787 7.42723 -0.127338 1.72951 -7.17394 6.60197
-62.6455 84.2696 10.1404 -19.9684 84.497 -8.7669 6.90529 -17.3951 8.63291 -4.9844 0.670855 2.3605 -2.56738 3.2211 -3.12945 11.1438 33.5939 -4.22381 -0.0 0.0 0.0 -0.0 0.0 0.0 1.50729e-13 3.40486e-12 -4.76089e-14 106.444 59.4565 -18.2679 -28.4073 -36.8595 78.4573 -0.452795 -18.7748 -2.73835 6.52141e-11 1.36311e-09 5.44495e-10 1.05535e-10 2.35599e-09 9.40818e-10 6.52248e-11 1.3631e-09 5.4447e-10 7.73091 5.47488 0.417314 6.52143e-11 1.36311e-09 5.44489e-10 2.90554 0.965183 0.102902 6.52176e-11 1.3631e-09 5.44468e-10 10.2786 0.731801 0.0259123 6.52131e-11 1.36311e-09 5.44498e-10 2.22167 -0.733487 -0.20892 1.50639e-13 3.40486e-12 -4.7758e-14 -89.6266 71.8642 10.2173 28.3489 -37.8058 -80.0725 0.976584 -26.8795 4.08506 6.99086e-10 -1.68484e-09 9.09461e-10 1.19204e-09 -2.92546e-09 1.58116e-09 6.99086e-10 -1.68482e-09 9.0947e-10 -7.73091 5.47488 -0.417314 6.99086e-10 -1.68483e-09 9.09451e-10 -2.90554 0.965183 -0.102902 6.99073e-10 -1.68482e-09 9.09455e-10 -10.2786 0.731801 -0.0259123 6.99092e-10 -1.68482e-09 9.09445e-10 -2.22167 -0.733487 0.20892 -2.03217e-16 0.0 -3.88251e-19 2.43258 -17.4294 3.8282 -0.0210155 13.0778 0.195261 -2.05609 -9.92172 -7.16065 2.03217e-16 0.0 3.88251e-19 3.6606 -13.4374 2.45159 0.0174997 9.37627 -0.172195 2.34426 -9.54043 8.10727
-62.6174 84.2817 10.2018 -21.4181 84.7591 -10.2399 7.35634 -18.7233 8.25554 -4.56102 1.35435 2.22829 -2.39577 3.62404 -3.20677 10.3103 34.301 -4.11939 -0.0 0.0 0.0 -0.0 0.0 0.0 1.34154e-13 2.6069e-12 -3.42209e-14 115.705 64.8109 -21.9343 -28.3156 -34.3325 83.6394 -0.58244 -20.5468 -3.02785 -1.89445e-10 2.10105e-10 -8.51535e-10 -3.1062e-10 3.58024e-10 -1.47551e-09 -1.89435e-10 2.10095e-10 -8.51558e-10 7.73091 5.47488 0.417314 -1.89445e-10 2.10105e-10 -8.51539e-10 2.90554 0.965183 0.102902 -1.89441e-10 2.10096e-10 -8.51558e-10 10.2786 0.731801 0.0259123 -1.89446e-10 2.10105e-10 -8.51531e-10 2.22167 -0.733487 -0.20892 1.34083e-13 2.6069e-12 -3.43765e-14 -98.7354 75.7488 12.7277 28.2717 -34.9687 -84.9536 1.19982 -28.6554 4.42954 1.09312e-09 -2.76348e-09 2.17538e-09 1.84515e-09 -4.79786e-09 3.77612e-09 1.09312e-09 -2.76347e-09 2.17539e-09 -7.73091 5.47488 -0.417314 1.09312e-09 -2.76348e-09 2.17537e-09 -2.90554 0.965183 -0.102902 1.09311e-09 -2.76347e-09 2.17537e-09 -10.2786 0.731801 -0.0259123 1.09313e-09 -2.76347e-09 2.17536e-09 -2.22167 -0.733487 0.20892 -2.03217e-16 0.0 -3.88251e-19 2.681 -18.1636 4.17642 -0.0247258 13.7064 0.209735 -2.34092 -10.7566 -7.9477 2.03217e-16 0.0 3.88251e-19 4.00187 -14.2162 2.5018 0.0225922 10.2222 -0.191752 2.6218 -10.5346 8.66592
-62.5877 84.2903 10.2603 -22.7216 84.9931 -11.613 6.98742 -18.7758 6.65076 -3.36104 2.27359 1.77756 -1.88111 3.85544 -2.96623 7.52861 31.6548 -3.31963 -0.0 0.0 0.0 -0.0 0.0 0.0 9.4247e-14 1.01918e-12 -8.66266e-15 112.413 66.6509 -20.8517 -28.2884 -34.8755 83.5632 -0.60919 -21.0599 -3.11002 -5.62709e-10 -1.63098e-09 -2.96524e-09 -9.19695e-10 -2.83156e-09 -5.13377e-09 -5.627e-10 -1.63099e-09 -2.96525e-09 7.73091 5.47488 0.417314 -5.62709e-10 -1.63099e-09 -2.96524e-09 2.90554 0.965183 0.102902 -5.62702e-10 -1.63099e-09 -2.96525e-09 10.2786 0.731801 0.0259123 -5.62709e-10 -1.63099e-09 -2.96523e-09 2.22167 -0.733487 -0.20892 9.42009e-14 1.01918e-12 -8.83349e-15 -96.2156 73.6711 9.57303 28.2567 -35.2652 -84.3673 1.15905 -28.2973 4.3608 1.60308e-09 -4.17137e-09 3.94162e-09 2.68714e-09 -7.24163e-09 6.83808e-09 1.60307e-09 -4.17136e-09 3.94164e-09 -7.73091 5.47488 -0.417314 1.60308e-09 -4.17137e-09 3.94162e-09 -2.90554 0.965183 -0.102902 1.60307e-09 -4.17136e-09 3.94162e-09 -10.2786 0.731801 -0.0259123 1.60309e-09 -4.17136e-09 3.94161e-09 -2.22167 -0.733487 0.20892 -2.03217e-16 0.0 -3.88251e-19 2.76472 -17.8157 4.21924 -0.0234883 13.468 0.20719 -2.40352 -10.691 -8.26207 2.03217e-16 0.0 3.88251e-19 4.02969 -14.131 2.2942 0.0235457 10.2795 -0.192881 2.59402 -10.5594 8.53187
